{
  "accessors": [
    {
      "bufferView": 2,
      "componentType": 5126,
      "count": 175,
      "max": [
        0.34891200065612793,
        0.9961190223693848,
        0.3946940004825592
      ],
      "min": [
        -0.34891200065612793,
        -0.9954429864883423,
        -0.39452600479125977
      ],
      "type": "VEC3"
    },
    {
      "bufferView": 2,
      "byteOffset": 2100,
      "componentType": 5126,
      "count": 175,
      "max": [
        1.0,
        0.983335018157959,
        4.1195798985427245e-06
      ],
      "min": [
        -1.0,
        -0.8871600031852722,
        -1.0
      ],
      "type": "VEC3"
    },
    {
      "bufferView": 3,
      "componentType": 5126,
      "count": 175,
      "max": [
        4.1195798985427245e-06,
        0.5628700256347656,
        1.0,
        1.0
      ],
      "min": [
        -1.0,
        -0.5843819975852966,
        -1.0,
        1.0
      ],
      "type": "VEC4"
    },
    {
      "bufferView": 1,
      "componentType": 5126,
      "count": 175,
      "max": [
        1.0,
        0.8979079723358154
      ],
      "min": [
        1.1703399849238849e-07,
        -4.455879931697382e-08
      ],
      "type": "VEC2"
    },
    {
      "bufferView": 1,
      "byteOffset": 1400,
      "componentType": 5126,
      "count": 175,
      "max": [
        0.9240249991416931,
        0.9916859865188599
      ],
      "min": [
        0.0017036499921232462,
        0.006916690152138472
      ],
      "type": "VEC2"
    },
    {
      "bufferView": 0,
      "componentType": 5125,
      "count": 354,
      "type": "SCALAR"
    },
    {
      "bufferView": 2,
      "byteOffset": 4200,
      "componentType": 5126,
      "count": 745,
      "max": [
        0.34891200065612793,
        1.0,
        0.39909300208091736
      ],
      "min": [
        -0.34891200065612793,
        -1.0,
        -0.39909300208091736
      ],
      "type": "VEC3"
    },
    {
      "bufferView": 2,
      "byteOffset": 13140,
      "componentType": 5126,
      "count": 745,
      "max": [
        1.0,
        0.999863862991333,
        1.0
      ],
      "min": [
        -1.0,
        -0.9999974966049194,
        -0.996743381023407
      ],
      "type": "VEC3"
    },
    {
      "bufferView": 3,
      "byteOffset": 2800,
      "componentType": 5126,
      "count": 745,
      "max": [
        1.0,
        1.0,
        0.9998289942741394,
        1.0
      ],
      "min": [
        -0.9999989867210388,
        -0.999983012676239,
        -0.9997119903564453,
        1.0
      ],
      "type": "VEC4"
    },
    {
      "bufferView": 1,
      "byteOffset": 2800,
      "componentType": 5126,
      "count": 745,
      "max": [
        0.9777209758758545,
        1.0
      ],
      "min": [
        0.0,
        5.551119755337213e-17
      ],
      "type": "VEC2"
    },
    {
      "bufferView": 1,
      "byteOffset": 8760,
      "componentType": 5126,
      "count": 745,
      "max": [
        1.0,
        0.9999520182609558
      ],
      "min": [
        0.0,
        2.8678599846898578e-05
      ],
      "type": "VEC2"
    },
    {
      "bufferView": 0,
      "byteOffset": 1416,
      "componentType": 5125,
      "count": 2172,
      "type": "SCALAR"
    },
    {
      "bufferView": 2,
      "byteOffset": 22080,
      "componentType": 5126,
      "count": 798,
      "max": [
        0.3117380142211914,
        0.5766689777374268,
        -0.021542800590395927
      ],
      "min": [
        -0.3117380142211914,
        0.02914080023765564,
        -0.31008899211883545
      ],
      "type": "VEC3"
    },
    {
      "bufferView": 2,
      "byteOffset": 31656,
      "componentType": 5126,
      "count": 798,
      "max": [
        1.0,
        0.9996197819709778,
        0.9998819828033447
      ],
      "min": [
        -1.0,
        -0.98066246509552,
        -0.9998042583465576
      ],
      "type": "VEC3"
    },
    {
      "bufferView": 3,
      "byteOffset": 14720,
      "componentType": 5126,
      "count": 798,
      "max": [
        0.9999989867210388,
        0.9771739840507507,
        0.9995629787445068,
        1.0
      ],
      "min": [
        -1.0,
        -0.9778820276260376,
        -0.9978280067443848,
        1.0
      ],
      "type": "VEC4"
    },
    {
      "bufferView": 1,
      "byteOffset": 14720,
      "componentType": 5126,
      "count": 798,
      "max": [
        1.0,
        0.9957489967346191
      ],
      "min": [
        0.0,
        0.002250579884275794
      ],
      "type": "VEC2"
    },
    {
      "bufferView": 1,
      "byteOffset": 21104,
      "componentType": 5126,
      "count": 798,
      "max": [
        0.3643540143966675,
        0.9908390045166016
      ],
      "min": [
        0.0,
        0.0
      ],
      "type": "VEC2"
    },
    {
      "bufferView": 0,
      "byteOffset": 10104,
      "componentType": 5125,
      "count": 3840,
      "type": "SCALAR"
    }
  ],
  "asset": {
    "extras": {
      "author": "joshtmc (https://sketchfab.com/joshtmc)",
      "license": "CC-BY-4.0 (http://creativecommons.org/licenses/by/4.0/)",
      "source": "https://sketchfab.com/3d-models/arcade-cabinet-b0cf90709d634eee9b104bd6cb13cb1d",
      "title": "Arcade Cabinet"
    },
    "generator": "Sketchfab-12.66.0",
    "version": "2.0"
  },
  "bufferViews": [
    {
      "buffer": 0,
      "byteLength": 25464,
      "name": "floatBufferViews",
      "target": 34963
    },
    {
      "buffer": 0,
      "byteLength": 27488,
      "byteOffset": 25464,
      "byteStride": 8,
      "name": "floatBufferViews",
      "target": 34962
    },
    {
      "buffer": 0,
      "byteLength": 41232,
      "byteOffset": 52952,
      "byteStride": 12,
      "name": "floatBufferViews",
      "target": 34962
    },
    {
      "buffer": 0,
      "byteLength": 27488,
      "byteOffset": 94184,
      "byteStride": 16,
      "name": "floatBufferViews",
      "target": 34962
    }
  ],
  "buffers": [
    {
      "byteLength": 121672,
      "uri": "scene.bin"
    }
  ],
  "images": [
    {
      "uri": "textures/Screen_baseColor.png"
    },
    {
      "uri": "textures/Screen_metallicRoughness.png"
    },
    {
      "uri": "textures/Screen_normal.jpeg"
    },
    {
      "uri": "textures/Frame_baseColor.png"
    },
    {
      "uri": "textures/Frame_metallicRoughness.png"
    },
    {
      "uri": "textures/Frame_emissive.jpeg"
    },
    {
      "uri": "textures/Frame_normal.jpeg"
    },
    {
      "uri": "textures/material_baseColor.png"
    },
    {
      "uri": "textures/material_metallicRoughness.png"
    },
    {
      "uri": "textures/material_emissive.jpeg"
    },
    {
      "uri": "textures/material_normal.jpeg"
    }
  ],
  "materials": [
    {
      "alphaMode": "BLEND",
      "doubleSided": true,
      "name": "Screen",
      "normalTexture": {
        "index": 2
      },
      "occlusionTexture": {
        "index": 1
      },
      "pbrMetallicRoughness": {
        "baseColorTexture": {
          "index": 0
        },
        "metallicRoughnessTexture": {
          "index": 1
        }
      }
    },
    {
      "alphaMode": "BLEND",
      "doubleSided": true,
      "emissiveFactor": [
        1.0,
        1.0,
        1.0
      ],
      "emissiveTexture": {
        "index": 5
      },
      "name": "Frame",
      "normalTexture": {
        "index": 6
      },
      "occlusionTexture": {
        "index": 4
      },
      "pbrMetallicRoughness": {
        "baseColorTexture": {
          "index": 3
        },
        "metallicRoughnessTexture": {
          "index": 4
        }
      }
    },
    {
      "alphaMode": "BLEND",
      "doubleSided": true,
      "emissiveFactor": [
        1.0,
        1.0,
        1.0
      ],
      "emissiveTexture": {
        "index": 9
      },
      "name": "material",
      "normalTexture": {
        "index": 10
      },
      "occlusionTexture": {
        "index": 8
      },
      "pbrMetallicRoughness": {
        "baseColorTexture": {
          "index": 7
        },
        "metallicRoughnessTexture": {
          "index": 8
        }
      }
    }
  ],
  "meshes": [
    {
      "name": "defaultMaterial",
      "primitives": [
        {
          "attributes": {
            "NORMAL": 1,
            "POSITION": 0,
            "TANGENT": 2,
            "TEXCOORD_0": 3,
            "TEXCOORD_1": 4
          },
          "indices": 5,
          "material": 2,
          "mode": 4
        }
      ]
    },
    {
      "name": "defaultMaterial",
      "primitives": [
        {
          "attributes": {
            "NORMAL": 7,
            "POSITION": 6,
            "TANGENT": 8,
            "TEXCOORD_0": 9,
            "TEXCOORD_1": 10
          },
          "indices": 11,
          "material": 1,
          "mode": 4
        }
      ]
    },
    {
      "name": "defaultMaterial",
      "primitives": [
        {
          "attributes": {
            "NORMAL": 13,
            "POSITION": 12,
            "TANGENT": 14,
            "TEXCOORD_0": 15,
            "TEXCOORD_1": 16
          },
          "indices": 17,
          "material": 0,
          "mode": 4
        }
      ]
    }
  ],
  "nodes": [
    {
      "children": [
        1
      ],
      "matrix": [
        -0.9331761002540588,
        -3.9058465621363467e-23,
        1.7590369121803584e-07,
        0.0,
        1.7590369121803584e-07,
        -2.072067185063939e-16,
        0.9331761002540588,
        0.0,
        0.0,
        0.9331761002540588,
        2.072067185063939e-16,
        0.0,
        -5.811500159325078e-06,
        -6.800000118545011e-09,
        -1.3587999774244963e-06,
        1.0
      ],
      "name": "Sketchfab_model"
    },
    {
      "children": [
        2,
        4,
        6
      ],
      "matrix": [
        1.0,
        0.0,
        0.0,
        0.0,
        0.0,
        -4.371139006309477e-08,
        0.999999999999999,
        0.0,
        0.0,
        -0.999999999999999,
        -4.371139006309477e-08,
        0.0,
        0.0,
        0.0,
        0.0,
        1.0
      ],
      "name": "Collada visual scene group"
    },
    {
      "children": [
        3
      ],
      "name": "Arcade"
    },
    {
      "mesh": 0,
      "name": "defaultMaterial"
    },
    {
      "children": [
        5
      ],
      "name": "Arcade"
    },
    {
      "mesh": 1,
      "name": "defaultMaterial"
    },
    {
      "children": [
        7
      ],
      "name": "Arcade"
    },
    {
      "mesh": 2,
      "name": "defaultMaterial"
    }
  ],
  "samplers": [
    {
      "magFilter": 9729,
      "minFilter": 9987,
      "wrapS": 10497,
      "wrapT": 10497
    }
  ],
  "scene": 0,
  "scenes": [
    {
      "name": "Sketchfab_Scene",
      "nodes": [
        0
      ]
    }
  ],
  "textures": [
    {
      "sampler": 0,
      "source": 0
    },
    {
      "sampler": 0,
      "source": 1
    },
    {
      "sampler": 0,
      "source": 2
    },
    {
      "sampler": 0,
      "source": 3
    },
    {
      "sampler": 0,
      "source": 4
    },
    {
      "sampler": 0,
      "source": 5
    },
    {
      "sampler": 0,
      "source": 6
    },
    {
      "sampler": 0,
      "source": 7
    },
    {
      "sampler": 0,
      "source": 8
    },
    {
      "sampler": 0,
      "source": 9
    },
    {
      "sampler": 0,
      "source": 10
    }
  ]
}
